<?xml version="1.0" encoding="UTF-8" standalone="no"?>
<svg
   height="256"
   width="256"
   version="1.1"
   id="svg14"
   sodipodi:docname="sort.svg"
   inkscape:version="1.1.1 (3bf5ae0d25, 2021-09-20)"
   xmlns:inkscape="http://www.inkscape.org/namespaces/inkscape"
   xmlns:sodipodi="http://sodipodi.sourceforge.net/DTD/sodipodi-0.dtd"
   xmlns="http://www.w3.org/2000/svg"
   xmlns:svg="http://www.w3.org/2000/svg">
  <defs
     id="defs18" />
  <sodipodi:namedview
     id="namedview16"
     pagecolor="#ffffff"
     bordercolor="#666666"
     borderopacity="1.0"
     inkscape:pageshadow="2"
     inkscape:pageopacity="0.0"
     inkscape:pagecheckerboard="0"
     showgrid="false"
     inkscape:zoom="1.9609375"
     inkscape:cx="127.74502"
     inkscape:cy="128"
     inkscape:window-width="1280"
     inkscape:window-height="730"
     inkscape:window-x="-6"
     inkscape:window-y="-6"
     inkscape:window-maximized="1"
     inkscape:current-layer="svg14" />
  <path
     d="m 137.66862,50.965199 q 0,-0.912481 0.58728,-0.912481 0.58723,0 1.17451,0 0.58723,0 1.17451,0 0.58723,0 1.17451,0 0.58722,0 1.1745,0 0.58723,0 1.17451,0 0.58723,0 1.17451,0 0.58723,0 1.17456,0 0.58723,0 1.17451,0 0.58723,0 1.17446,0 0.58728,0 1.17456,0 0.58728,0 1.17451,0 0.58723,0 1.17446,0 0.58733,0 1.17456,0 0.58722,0 1.1745,0 0.58723,0 1.17451,0 0.58728,0 1.17451,0 0.58723,0 1.17446,0 0.58728,0 1.17461,0 0.58723,0 1.17446,0 0.58728,0 1.17451,0 0.58728,0 1.17456,0 0.58723,0 1.17451,0 0.58723,0 1.1745,0 0.58723,0 1.17451,0 0.58723,0 1.17446,0 0.58728,0 1.17456,0 0.58728,0 1.17451,0 0.58723,0 1.17451,0 0.58723,0 1.17451,0 0.58723,0 1.17451,0 0.58728,0 1.17451,0 0.58723,0 1.17451,0 0.58727,0 1.17455,0 0.58723,0 1.17451,0 0.58723,0 1.17451,0 0.58728,0 1.17451,0 0.58723,0 1.17446,0 0.58728,0 1.17461,0 0.58723,0 1.17446,0 0.58723,0 1.17446,0 0.58733,0 1.17456,0 0.58723,0 1.1745,0 0.58723,0 1.17451,0 0.58728,0 1.17451,0 0.58723,0 1.17451,0 0.58728,0 1.17456,0 0.58728,0 1.17451,0 0.58723,0 1.17451,0 0.58723,0 1.17451,0 0.58723,0 1.17451,0 0.58728,0 1.17451,0 0.58722,0 1.1745,0 0.58723,0 1.17451,0 0.58723,0 1.17451,0 0.58728,0 1.17451,0 0.58728,0 1.17451,0 0.58723,0 1.17451,0 0.58728,0 1.17451,0 0.58728,0 1.17456,0 0.58723,0 1.17451,0 0.58728,0 1.17451,0 0.58722,0 1.17445,0 0.58728,0 1.17456,0 0.58728,0 1.17451,0 0.58723,0 1.17446,0 0.58728,0 1.17456,0 0.58728,0 1.17451,0 0.58723,0 1.17451,0 0.58728,0 1.17451,0 0.58723,0 1.17446,0 0.58728,0 1.17455,0 0.58728,0 1.17456,0 0.58723,0 1.17451,0 0.58723,0 1.17451,0 0.58728,0 1.17451,0 0.58723,0 1.17451,0 0.58723,0 1.17451,0 0.58723,0 1.17451,0 0.58728,0 1.17451,0 0.58723,0 1.17451,0 0.58727,0 1.1745,0 0.58723,0 1.17446,0 0.58733,0 1.17456,0 0.58728,0 0.58728,0.912481 0,0.912354 0,1.824772 0,0.912481 0,1.824899 0,0.912418 0,1.824899 0,0.912418 0,1.824772 0,0.912481 0,1.824899 0,0.912481 0,1.824899 0,0.912418 0,1.824835 0,0.912418 0,1.824899 0,0.912354 0,1.824899 0,0.912354 0,1.824772 0,0.912481 0,1.824836 0,0.912481 0,1.824962 0,0.912418 0,1.824772 0,0.912481 0,1.824962 0,0.912355 0,1.824772 0,0.912482 0,1.824899 0,0.912355 0,1.824836 0,0.912481 -0.58728,0.912481 -0.58723,0 -1.17456,0 -0.58723,0 -1.17446,0 -0.58723,0 -1.1745,0 -0.58728,0 -1.17451,0 -0.58723,0 -1.17451,0 -0.58728,0 -1.17451,0 -0.58728,0 -1.17451,0 -0.58728,0 -1.17451,0 -0.58723,0 -1.17451,0 -0.58728,0 -1.17451,0 -0.58728,0 -1.17451,0 -0.58728,0 -1.17456,0 -0.58727,0 -1.17455,0 -0.58723,0 -1.17446,0 -0.58723,0 -1.17451,0 -0.58728,0 -1.17451,0 -0.58723,0 -1.17451,0 -0.58728,0 -1.17456,0 -0.58723,0 -1.17446,0 -0.58723,0 -1.17451,0 -0.58728,0 -1.17456,0 -0.58723,0 -1.17445,0 -0.58723,0 -1.17451,0 -0.58728,0 -1.17451,0 -0.58728,0 -1.17456,0 -0.58723,0 -1.17451,0 -0.58728,0 -1.17451,0 -0.58723,0 -1.17451,0 -0.58723,0 -1.17451,0 -0.58728,0 -1.17451,0 -0.58728,0 -1.17451,0 -0.58728,0 -1.1745,0 -0.58723,0 -1.17451,0 -0.58728,0 -1.17451,0 -0.58728,0 -1.17451,0 -0.58728,0 -1.17451,0 -0.58723,0 -1.17451,0 -0.58728,0 -1.17456,0 -0.58728,0 -1.17451,0 -0.58723,0 -1.17451,0 -0.58728,0 -1.17451,0 -0.58727,0 -1.1745,0 -0.58723,0 -1.17456,0 -0.58723,0 -1.17446,0 -0.58723,0 -1.17446,0 -0.58733,0 -1.17461,0 -0.58723,0 -1.17446,0 -0.58723,0 -1.17451,0 -0.58728,0 -1.17451,0 -0.58728,0 -1.17451,0 -0.58728,0 -1.17455,0 -0.58728,0 -1.17451,0 -0.58723,0 -1.17451,0 -0.58728,0 -1.17451,0 -0.58728,0 -1.17451,0 -0.58728,0 -1.17451,0 -0.58723,0 -1.17451,0 -0.58728,0 -1.17456,0 -0.58723,0 -1.17446,0 -0.58728,0 -1.17451,0 -0.58727,0 -1.1745,0 -0.58728,0 -1.17451,0 -0.58728,0 -1.17456,0 -0.58723,0 -1.17451,0 -0.58723,0 -1.17446,0 -0.58733,0 -1.17461,0 -0.58723,0 -1.17446,0 -0.58723,0 -1.17451,0 -0.58728,0 -1.17451,0 -0.58728,0 -1.1745,0 -0.58723,0 -1.17456,0 -0.58723,0 -1.17446,0 -0.58723,0 -1.17451,0 -0.58728,0 -1.17456,0 -0.58723,0 -1.17446,0 -0.58728,0 -1.17451,0 -0.58733,0 -1.17456,0 -0.58728,0 -1.17451,0 -0.58728,0 -1.17451,0 -0.58728,0 -1.1745,0 -0.58728,0 -1.17451,0 -0.58728,0 -1.17451,0 -0.58728,0 -1.17451,0 -0.58728,0 -0.58728,-0.912481 0,-0.912481 0,-1.824836 0,-0.912417 0,-1.824899 0,-0.912417 0,-1.824772 0,-0.912481 0,-1.824962 0,-0.912354 0,-1.824772 0,-0.912481 0,-1.824962 0,-0.912355 0,-1.824836 0,-0.912418 0,-1.824772 0,-0.912545 0,-1.824899 0,-0.912481 0,-1.824899 0,-0.912417 0,-1.824835 0,-0.912418 0,-1.824899 0,-0.912418 0,-1.824899 0,-0.912354 0,-1.824772 0,-0.912481 0,-1.824899 0,-0.912418 0,-1.824899 0,-0.912418 0,-1.824772"
     id="path2"
     style="fill:#bababa;stroke-width:1.46401" />
  <path
     d="m 138.31908,116.1502 q 0,-0.91235 0.58728,-0.91235 0.58723,0 1.17446,0 0.58728,0 1.17456,0 0.58728,0 1.17451,0 0.58723,0 1.17451,0 0.58723,0 1.17451,0 0.58723,0 1.17451,0 0.58728,0 1.17451,0 0.58723,0 1.17451,0 0.58727,0 1.17455,0 0.58723,0 1.17451,0 0.58723,0 1.17451,0 0.58728,0 1.17451,0 0.58723,0 1.17446,0 0.58728,0 1.17461,0 0.58723,0 1.17446,0 0.58723,0 1.17446,0 0.58733,0 1.17456,0 0.58723,0 1.1745,0 0.58723,0 1.17451,0 0.58728,0 1.17451,0 0.58723,0 1.17451,0 0.58728,0 1.17456,0 0.58728,0 1.17451,0 0.58723,0 1.17451,0 0.58723,0 1.17451,0 0.58723,0 1.17451,0 0.58728,0 1.17451,0 0.58722,0 1.1745,0 0.58723,0 1.17451,0 0.58723,0 1.17451,0 0.58728,0 1.17451,0 0.58728,0 1.17451,0 0.58723,0 1.17451,0 0.58728,0 1.17451,0 0.58728,0 1.17456,0 0.58723,0 1.17451,0 0.58728,0 1.17451,0 0.58722,0 1.17445,0 0.58728,0 1.17456,0 0.58728,0 1.17451,0 0.58723,0 1.17446,0 0.58728,0 1.17456,0 0.58728,0 1.17451,0 0.58723,0 1.17451,0 0.58728,0 1.17451,0 0.58723,0 1.17446,0 0.58728,0 1.17455,0 0.58728,0 1.17456,0 0.58723,0 1.17451,0 0.58723,0 1.17451,0 0.58728,0 1.17451,0 0.58723,0 1.17451,0 0.58723,0 1.17451,0 0.58723,0 1.17451,0 0.58728,0 1.17451,0 0.58723,0 1.17451,0 0.58727,0 1.1745,0 0.58723,0 1.17446,0 0.58733,0 1.17456,0 0.58728,0 1.17451,0 0.58728,0 1.17451,0 0.58733,0 1.17456,0 0.58728,0 1.17451,0 0.58723,0 1.17451,0 0.58728,0 1.17451,0 0.58723,0 1.17445,0 0.58728,0 1.17461,0 0.58723,0 1.17446,0 0.58723,0 1.17446,0 0.58728,0 1.17456,0 0.58728,0 1.17451,0 0.58723,0 1.17451,0 0.58728,0 1.17451,0 0.58728,0 1.17456,0 0.58723,0 1.17451,0 0.58727,0 1.1745,0 0.58723,0 1.17451,0 0.58723,0 1.17451,0 0.58728,0 1.17451,0 0.58728,0 1.17451,0 0.58723,0 1.17451,0 0.58723,0 1.17451,0 0.58728,0 1.17451,0 0.58723,0 0.58723,0.91235 0,0.91242 0,1.8249 0,0.91242 0,1.82484 0,0.91242 0,1.8249 0,0.91242 0,1.82483 0,0.91242 0,1.82484 0,0.91254 0,1.82483 0,0.91249 0,1.82497 0,0.91235 0,1.82477 0,0.91248 0,1.82496 0,0.91236 0,1.82484 0,0.91241 0,1.82483 0,0.91242 0,1.82484 0,0.91248 0,1.8249 0,0.91241 0,1.82483 0,0.91248 0,1.8249 0,0.91236 0,1.8249 0,0.91235 0,1.82477 0,0.91248 -0.58723,0.91248 -0.58723,0 -1.17451,0 -0.58728,0 -1.17451,0 -0.58728,0 -1.17451,0 -0.58723,0 -1.17451,0 -0.58723,0 -1.17451,0 -0.58728,0 -1.17451,0 -0.58728,0 -1.17451,0 -0.58723,0 -1.1745,0 -0.58728,0 -1.17451,0 -0.58728,0 -1.17456,0 -0.58723,0 -1.17451,0 -0.58728,0 -1.17451,0 -0.58723,0 -1.17451,0 -0.58728,0 -1.17456,0 -0.58723,0 -1.17446,0 -0.58723,0 -1.17446,0 -0.58733,0 -1.17461,0 -0.58722,0 -1.17445,0 -0.58723,0 -1.17451,0 -0.58728,0 -1.17451,0 -0.58723,0 -1.17451,0 -0.58723,0 -1.17456,0 -0.58723,0 -1.17451,0 -0.58723,0 -1.17451,0 -0.58723,0 -1.17456,0 -0.58723,0 -1.17446,0 -0.58723,0 -1.1745,0 -0.58728,0 -1.17451,0 -0.58723,0 -1.17451,0 -0.58728,0 -1.17451,0 -0.58728,0 -1.17451,0 -0.58728,0 -1.17451,0 -0.58723,0 -1.17451,0 -0.58728,0 -1.17451,0 -0.58728,0 -1.17451,0 -0.58728,0 -1.17456,0 -0.58727,0 -1.17455,0 -0.58723,0 -1.17446,0 -0.58723,0 -1.17451,0 -0.58728,0 -1.17451,0 -0.58723,0 -1.17451,0 -0.58728,0 -1.17456,0 -0.58723,0 -1.17446,0 -0.58723,0 -1.17451,0 -0.58728,0 -1.17456,0 -0.58723,0 -1.17445,0 -0.58723,0 -1.17451,0 -0.58728,0 -1.17451,0 -0.58728,0 -1.17456,0 -0.58723,0 -1.17451,0 -0.58728,0 -1.17451,0 -0.58723,0 -1.17451,0 -0.58723,0 -1.17451,0 -0.58728,0 -1.17451,0 -0.58728,0 -1.17451,0 -0.58728,0 -1.1745,0 -0.58723,0 -1.17451,0 -0.58728,0 -1.17451,0 -0.58728,0 -1.17451,0 -0.58728,0 -1.17451,0 -0.58723,0 -1.17451,0 -0.58728,0 -1.17456,0 -0.58728,0 -1.17451,0 -0.58723,0 -1.17451,0 -0.58728,0 -1.17451,0 -0.58727,0 -1.1745,0 -0.58723,0 -1.17456,0 -0.58723,0 -1.17446,0 -0.58723,0 -1.17446,0 -0.58733,0 -1.17461,0 -0.58723,0 -1.17446,0 -0.58723,0 -1.17451,0 -0.58728,0 -1.17451,0 -0.58728,0 -1.17451,0 -0.58728,0 -1.17455,0 -0.58728,0 -1.17451,0 -0.58723,0 -1.17451,0 -0.58728,0 -1.17451,0 -0.58728,0 -1.17451,0 -0.58728,0 -1.17451,0 -0.58723,0 -1.17451,0 -0.58728,0 -1.17456,0 -0.58723,0 -1.17446,0 -0.58728,0 -0.58728,-0.91248 0,-0.91242 0,-1.82477 0,-0.91254 0,-1.8249 0,-0.91242 0,-1.8249 0,-0.91242 0,-1.82483 0,-0.91242 0,-1.8249 0,-0.91242 0,-1.82484 0,-0.91242 0,-1.82483 0,-0.91248 0,-1.82484 0,-0.91248 0,-1.82496 0,-0.91242 0,-1.82477 0,-0.91248 0,-1.82497 0,-0.91229 0,-1.82483 0,-0.91242 0,-1.82484 0,-0.91241 0,-1.82483 0,-0.91248 0,-1.8249 0,-0.91242 0,-1.82484 0,-0.91248 0,-1.8249"
     id="path4"
     style="fill:#bababa;stroke-width:1.46401" />
  <path
     d="m 137.66862,182.35526 q 0,-0.91248 0.58728,-0.91248 0.58723,0 1.17451,0 0.58723,0 1.17451,0 0.58723,0 1.17451,0 0.58722,0 1.1745,0 0.58723,0 1.17451,0 0.58723,0 1.17451,0 0.58723,0 1.17456,0 0.58723,0 1.17451,0 0.58723,0 1.17446,0 0.58728,0 1.17456,0 0.58728,0 1.17451,0 0.58723,0 1.17446,0 0.58733,0 1.17456,0 0.58722,0 1.1745,0 0.58723,0 1.17451,0 0.58728,0 1.17451,0 0.58723,0 1.17446,0 0.58728,0 1.17461,0 0.58723,0 1.17446,0 0.58728,0 1.17451,0 0.58728,0 1.17456,0 0.58723,0 1.17451,0 0.58723,0 1.1745,0 0.58723,0 1.17451,0 0.58723,0 1.17446,0 0.58728,0 1.17456,0 0.58728,0 1.17451,0 0.58723,0 1.17451,0 0.58723,0 1.17451,0 0.58723,0 1.17451,0 0.58728,0 1.17451,0 0.58723,0 1.17451,0 0.58727,0 1.17455,0 0.58723,0 1.17451,0 0.58723,0 1.17451,0 0.58728,0 1.17451,0 0.58723,0 1.17446,0 0.58728,0 1.17461,0 0.58723,0 1.17446,0 0.58723,0 1.17446,0 0.58733,0 1.17456,0 0.58723,0 1.1745,0 0.58723,0 1.17451,0 0.58728,0 1.17451,0 0.58723,0 1.17451,0 0.58728,0 1.17456,0 0.58728,0 1.17451,0 0.58723,0 1.17451,0 0.58723,0 1.17451,0 0.58723,0 1.17451,0 0.58728,0 1.17451,0 0.58722,0 1.1745,0 0.58723,0 1.17451,0 0.58723,0 1.17451,0 0.58728,0 1.17451,0 0.58728,0 1.17451,0 0.58723,0 1.17451,0 0.58728,0 1.17451,0 0.58728,0 1.17456,0 0.58723,0 1.17451,0 0.58728,0 1.17451,0 0.58722,0 1.17445,0 0.58728,0 1.17456,0 0.58728,0 1.17451,0 0.58723,0 1.17446,0 0.58728,0 1.17456,0 0.58728,0 1.17451,0 0.58723,0 1.17451,0 0.58728,0 1.17451,0 0.58723,0 1.17446,0 0.58728,0 1.17455,0 0.58728,0 1.17456,0 0.58723,0 1.17451,0 0.58723,0 1.17451,0 0.58728,0 1.17451,0 0.58723,0 1.17451,0 0.58723,0 1.17451,0 0.58723,0 1.17451,0 0.58728,0 1.17451,0 0.58723,0 1.17451,0 0.58727,0 1.1745,0 0.58723,0 1.17446,0 0.58733,0 1.17456,0 0.58728,0 0.58728,0.91248 0,0.91241 0,1.82477 0,0.91254 0,1.82496 0,0.91236 0,1.82484 0,0.91241 0,1.82483 0,0.91248 0,1.8249 0,0.91242 0,1.82484 0,0.91248 0,1.82483 0,0.91248 0,1.8249 0,0.91242 0,1.82484 0,0.91241 0,1.8249 0,0.91241 0,1.82489 0,0.91236 0,1.82478 0,0.91254 0,1.82483 0,0.91248 0,1.82496 0,0.91242 0,1.82478 0,0.91248 0,1.82496 0,0.91242 0,1.82483 0,0.91242 -0.58728,0.91242 -0.58723,0 -1.17456,0 -0.58723,0 -1.17446,0 -0.58723,0 -1.1745,0 -0.58728,0 -1.17451,0 -0.58723,0 -1.17451,0 -0.58728,0 -1.17451,0 -0.58728,0 -1.17451,0 -0.58728,0 -1.17451,0 -0.58723,0 -1.17451,0 -0.58728,0 -1.17451,0 -0.58728,0 -1.17451,0 -0.58728,0 -1.17456,0 -0.58727,0 -1.17455,0 -0.58723,0 -1.17446,0 -0.58723,0 -1.17451,0 -0.58728,0 -1.17451,0 -0.58723,0 -1.17451,0 -0.58728,0 -1.17456,0 -0.58723,0 -1.17446,0 -0.58723,0 -1.17451,0 -0.58728,0 -1.17456,0 -0.58723,0 -1.17445,0 -0.58723,0 -1.17451,0 -0.58728,0 -1.17451,0 -0.58728,0 -1.17456,0 -0.58723,0 -1.17451,0 -0.58728,0 -1.17451,0 -0.58723,0 -1.17451,0 -0.58723,0 -1.17451,0 -0.58728,0 -1.17451,0 -0.58728,0 -1.17451,0 -0.58728,0 -1.1745,0 -0.58723,0 -1.17451,0 -0.58728,0 -1.17451,0 -0.58728,0 -1.17451,0 -0.58728,0 -1.17451,0 -0.58723,0 -1.17451,0 -0.58728,0 -1.17456,0 -0.58728,0 -1.17451,0 -0.58723,0 -1.17451,0 -0.58728,0 -1.17451,0 -0.58727,0 -1.1745,0 -0.58723,0 -1.17456,0 -0.58723,0 -1.17446,0 -0.58723,0 -1.17446,0 -0.58733,0 -1.17461,0 -0.58723,0 -1.17446,0 -0.58723,0 -1.17451,0 -0.58728,0 -1.17451,0 -0.58728,0 -1.17451,0 -0.58728,0 -1.17455,0 -0.58728,0 -1.17451,0 -0.58723,0 -1.17451,0 -0.58728,0 -1.17451,0 -0.58728,0 -1.17451,0 -0.58728,0 -1.17451,0 -0.58723,0 -1.17451,0 -0.58728,0 -1.17456,0 -0.58723,0 -1.17446,0 -0.58728,0 -1.17451,0 -0.58727,0 -1.1745,0 -0.58728,0 -1.17451,0 -0.58728,0 -1.17456,0 -0.58723,0 -1.17451,0 -0.58723,0 -1.17446,0 -0.58733,0 -1.17461,0 -0.58723,0 -1.17446,0 -0.58723,0 -1.17451,0 -0.58728,0 -1.17451,0 -0.58728,0 -1.1745,0 -0.58723,0 -1.17456,0 -0.58723,0 -1.17446,0 -0.58723,0 -1.17451,0 -0.58728,0 -1.17456,0 -0.58723,0 -1.17446,0 -0.58728,0 -1.17451,0 -0.58733,0 -1.17456,0 -0.58728,0 -1.17451,0 -0.58728,0 -1.17451,0 -0.58728,0 -1.1745,0 -0.58728,0 -1.17451,0 -0.58728,0 -1.17451,0 -0.58728,0 -1.17451,0 -0.58728,0 -0.58728,-0.91242 0,-0.91241 0,-1.82483 0,-0.91248 0,-1.82496 0,-0.91236 0,-1.82478 0,-0.91248 0,-1.82496 0,-0.91229 0,-1.82483 0,-0.91242 0,-1.82478 0,-0.91248 0,-1.82489 0,-0.91249 0,-1.8249 0,-0.91242 0,-1.82484 0,-0.91242 0,-1.8249 0,-0.91235 0,-1.82483 0,-0.91242 0,-1.82484 0,-0.91242 0,-1.8249 0,-0.91242 0,-1.82483 0,-0.91248 0,-1.82484 0,-0.91242 0,-1.82496 0,-0.91236 0,-1.82477"
     id="path6"
     style="fill:#bababa;stroke-width:1.46401" />
  <path
     d="M 96.780479,181.70295 V 113.92814 H 84.096441 v 67.77481 H 65.070417 l 25.368069,38.57648 25.368064,-38.57648 z M 52.386383,46.250012 27.018315,84.826568 H 46.044339 V 152.60137 H 58.728373 V 84.826568 h 19.026078 z"
     stroke="#bababa"
     stroke-width="13.9192"
     id="path10"
     style="fill:#bababa" />
</svg>
